# xmcd
#
# Track frame offsets:
#	150
#	29962
#	56766
#	86395
#	114806
#	147786
#	175127
#	202874
#	235511
#	260045
#
# Disc length: 3772 seconds
#
# Revision: 1
# Processed by: cddbd v1.5.2PL0 Copyright (c) Steve Scherf et al.
# Submitted via: audiograbber 1.83.01
#
DISCID=810eba0a
DTITLE=Amy Winehouse - Maximum
DYEAR=2007
DGENRE=Vocal
TTITLE0=It's All About Soul
TTITLE1=A London Thing
TTITLE2=You're Going to Know My Name
TTITLE3=Molding the Heartache
TTITLE4=Laid Bare
TTITLE5=How We Feel
TTITLE6=Moving on
TTITLE7=Down with the Girls
TTITLE8=She's Trouble
TTITLE9=Looking for the Light
EXTD=
EXTT0=
EXTT1=
EXTT2=
EXTT3=
EXTT4=
EXTT5=
EXTT6=
EXTT7=
EXTT8=
EXTT9=
PLAYORDER=
